<svg width="27" height="28" viewBox="0 0 27 28" fill="none" xmlns="http://www.w3.org/2000/svg">
<path d="M19.3181 2.96094H7.85836C6.14164 2.96094 4.73706 4.35437 4.73706 6.08224V22.1235C4.73706 23.8514 6.14164 25.256 7.85836 25.256H19.3181C21.0459 25.256 22.4394 23.8514 22.4394 22.1235V6.08224C22.4394 4.35437 21.0459 2.96094 19.3181 2.96094ZM9.00659 19.0468H18.1698C18.638 19.0468 19.0059 19.4259 19.0059 19.8829C19.0059 20.34 18.638 20.719 18.1698 20.719H9.00659C8.54954 20.719 8.17052 20.34 8.17052 19.8829C8.17052 19.4259 8.54954 19.0468 9.00659 19.0468ZM8.17052 14.1531C8.17052 13.696 8.54954 13.317 9.00659 13.317H18.1698C18.638 13.317 19.0059 13.696 19.0059 14.1531C19.0059 14.6213 18.638 14.9891 18.1698 14.9891H9.00659C8.54954 14.9891 8.17052 14.6213 8.17052 14.1531ZM18.1698 9.25929H9.00659C8.54954 9.25929 8.17052 8.89142 8.17052 8.42323C8.17052 7.96618 8.54954 7.58716 9.00659 7.58716H18.1698C18.638 7.58716 19.0059 7.96618 19.0059 8.42323C19.0059 8.89142 18.638 9.25929 18.1698 9.25929Z" fill="black"/>
</svg>
