<svg width="28" height="28" viewBox="0 0 28 28" fill="none" xmlns="http://www.w3.org/2000/svg">
<path d="M21.1016 3.00586H7.34554C4.99341 3.00586 3.07605 4.92324 3.07605 7.27537V21.0314C3.07605 23.3836 4.99341 25.3009 7.34554 25.3009H21.1016C23.1305 25.3009 24.8249 23.8741 25.2596 21.979C25.3265 21.8564 25.3711 21.7226 25.3711 21.5777V7.27537C25.3711 4.92324 23.4538 3.00586 21.1016 3.00586ZM21.9377 15.3016C21.9377 15.7586 21.5587 16.1377 21.1016 16.1377C20.6334 16.1377 20.2656 15.7586 20.2656 15.3016V13.0052C20.2656 12.5482 20.6334 12.1691 21.1016 12.1691C21.5587 12.1691 21.9377 12.5482 21.9377 13.0052V15.3016ZM6.50948 15.3016V13.0052C6.50948 12.5482 6.88849 12.1691 7.34554 12.1691C7.81374 12.1691 8.18161 12.5482 8.18161 13.0052V15.3016C8.18161 15.7586 7.81374 16.1377 7.34554 16.1377C6.88849 16.1377 6.50948 15.7586 6.50948 15.3016ZM18.4931 10.72V17.5868C18.4931 18.055 18.1252 18.4229 17.657 18.4229C17.2 18.4229 16.821 18.055 16.821 17.5868V10.72C16.821 10.2518 17.2 9.88389 17.657 9.88389C18.1252 9.88389 18.4931 10.2518 18.4931 10.72ZM15.0597 8.42356V19.8832C15.0597 20.3403 14.6806 20.7193 14.2236 20.7193C13.7665 20.7193 13.3875 20.3403 13.3875 19.8832V8.42356C13.3875 7.96652 13.7665 7.5875 14.2236 7.5875C14.6806 7.5875 15.0597 7.96652 15.0597 8.42356ZM11.6262 10.72V17.5868C11.6262 18.055 11.2472 18.4229 10.7902 18.4229C10.322 18.4229 9.9541 18.055 9.9541 17.5868V10.72C9.9541 10.2518 10.322 9.88389 10.7902 9.88389C11.2472 9.88389 11.6262 10.2518 11.6262 10.72Z" fill="black"/>
</svg>
