<svg width="27" height="28" viewBox="0 0 27 28" fill="none" xmlns="http://www.w3.org/2000/svg">
<path d="M12.7056 11.2676V13.4079C11.903 13.2073 11.3679 12.7502 11.3679 12.3377C11.3679 11.9141 11.903 11.4571 12.7056 11.2676Z" fill="black"/>
<path d="M15.7158 16.3504C15.7158 16.7629 15.1807 17.22 14.3781 17.4206V15.2803C15.1807 15.4698 15.7158 15.9268 15.7158 16.3504Z" fill="black"/>
<path d="M21.2226 6.65166C19.1715 4.60051 16.4403 3.47461 13.5419 3.47461C10.6436 3.47461 7.91244 4.60051 5.86129 6.65166C3.799 8.7028 2.6731 11.434 2.6731 14.3435C2.6731 15.7703 2.95179 17.1749 3.49802 18.5015C4.04425 19.8281 4.84687 21.0097 5.86129 22.0241C6.86457 23.0385 8.05736 23.83 9.38392 24.3762C10.7105 24.9336 12.1039 25.2123 13.5419 25.2123C14.98 25.2123 16.3734 24.9336 17.7 24.3762C19.0265 23.83 20.2193 23.0385 21.2226 22.0241C22.237 21.0097 23.0397 19.8281 23.5859 18.5015C24.1321 17.1749 24.4108 15.7703 24.4108 14.3435C24.4108 11.434 23.2849 8.7028 21.2226 6.65166ZM14.378 19.1258V19.3599C14.378 19.8169 13.999 20.1959 13.5419 20.1959C13.0849 20.1959 12.7059 19.8169 12.7059 19.3599V19.1146C11.7249 18.9585 10.8554 18.5349 10.298 17.8995C10.0528 17.6097 10.0305 17.1861 10.2534 16.874C10.4764 16.5507 10.8777 16.4392 11.2344 16.573L12.7059 17.1303V15.1015C10.9669 14.834 9.69605 13.708 9.69605 12.3369C9.69605 10.9546 10.9669 9.83985 12.7059 9.56117V9.32707C12.7059 8.85887 13.0849 8.491 13.5419 8.491C13.999 8.491 14.378 8.85887 14.378 9.32707V9.56117C15.359 9.72838 16.2285 10.152 16.7859 10.7763C17.0311 11.0661 17.0534 11.4897 16.8305 11.813C16.6744 12.0359 16.418 12.1697 16.1505 12.1697C16.0501 12.1697 15.9498 12.1474 15.8495 12.114L14.378 11.5454V13.5743C16.117 13.8418 17.3879 14.9677 17.3879 16.35C17.3879 17.7323 16.117 18.8471 14.378 19.1258Z" fill="black"/>
</svg>
