<svg width="131" height="136" fill="none" xmlns="http://www.w3.org/2000/svg"><g stroke="#000" stroke-width="3.379" stroke-miterlimit="1.5" stroke-linecap="round" stroke-linejoin="round"><path d="M15.65 43.295c16.784-12.57 36.324-20.284 57.033-14.666 18.692 5.071 30.46 21.002 17.857 40.703-5.967 9.327-18.67 15.855-28.655 10.542-11.124-5.919-2.356-20.857 4.765-25.165 16.634-10.062 40.046-5.385 51.562 14.159 13.637 23.144-9.427 34.664-9.443 34.476"/><path d="M19.268 18.382c.61 2.425.258 4.852.018 7.295-.785 8.024-3.93 16.354-9.574 21.617 7.426-3.257 18.08-4.675 24.825 1.041"/></g></svg>