<svg width="27" height="28" fill="none" xmlns="http://www.w3.org/2000/svg"><path d="M19.318 2.96H7.858a3.123 3.123 0 00-3.12 3.122v16.041a3.133 3.133 0 003.12 3.133h11.46a3.126 3.126 0 003.121-3.133V6.084a3.116 3.116 0 00-3.12-3.122zM9.007 19.048h9.163a.835.835 0 110 1.672H9.007a.842.842 0 01-.836-.836c0-.457.379-.836.836-.836zm-.836-4.894c0-.457.379-.836.836-.836h9.163c.468 0 .836.379.836.836a.828.828 0 01-.836.836H9.007a.835.835 0 01-.836-.836zM18.17 9.26H9.007a.835.835 0 110-1.672h9.163c.468 0 .836.38.836.836a.828.828 0 01-.836.836z" fill="#000"/></svg>