<svg width="28" height="28" fill="none" xmlns="http://www.w3.org/2000/svg"><path d="M21.102 3.006H7.346a4.277 4.277 0 00-4.27 4.27V21.03a4.277 4.277 0 004.27 4.27h13.756c2.029 0 3.723-1.427 4.158-3.322a.834.834 0 00.111-.401V7.275a4.277 4.277 0 00-4.27-4.27zm.836 12.296a.835.835 0 11-1.672 0v-2.297a.835.835 0 111.672 0v2.297zm-15.429 0v-2.297a.836.836 0 111.673 0v2.297a.835.835 0 11-1.673 0zm11.984-4.582v6.867a.828.828 0 01-.836.836.835.835 0 01-.836-.836V10.72c0-.468.379-.836.836-.836.468 0 .836.368.836.836zM15.06 8.424v11.46c0 .456-.38.835-.836.835a.842.842 0 01-.837-.836V8.423c0-.456.38-.835.837-.835.457 0 .836.379.836.836zm-3.434 2.296v6.867a.835.835 0 01-.836.836.828.828 0 01-.836-.836V10.72c0-.468.368-.836.836-.836.457 0 .836.368.836.836z" fill="#000"/></svg>