<svg width="27" height="28" fill="none" xmlns="http://www.w3.org/2000/svg"><path d="M12.706 11.268v2.14c-.803-.2-1.338-.658-1.338-1.07 0-.424.535-.88 1.338-1.07zm3.01 5.082c0 .413-.535.87-1.338 1.07v-2.14c.803.19 1.338.647 1.338 1.07z" fill="#000"/><path d="M21.223 6.652a10.793 10.793 0 00-7.681-3.177 10.79 10.79 0 00-7.68 3.177 10.764 10.764 0 00-3.189 7.692c0 1.426.279 2.83.825 4.158a10.764 10.764 0 002.363 3.522 10.619 10.619 0 003.523 2.352c1.326.558 2.72.836 4.158.836 1.438 0 2.831-.278 4.158-.836a10.62 10.62 0 003.523-2.352 10.764 10.764 0 002.363-3.523c.546-1.326.825-2.73.825-4.158 0-2.909-1.126-5.64-3.188-7.691zm-6.845 12.474v.234a.842.842 0 01-.836.836.842.842 0 01-.836-.836v-.245c-.981-.156-1.85-.58-2.408-1.215a.837.837 0 01-.045-1.026.826.826 0 01.981-.301l1.472.557v-2.028c-1.74-.268-3.01-1.394-3.01-2.765 0-1.382 1.27-2.497 3.01-2.776v-.234a.835.835 0 111.672 0v.234c.981.167 1.85.591 2.408 1.215.245.29.267.714.044 1.037a.836.836 0 01-.68.357c-.1 0-.2-.023-.3-.056l-1.472-.569v2.03c1.739.267 3.01 1.393 3.01 2.775s-1.271 2.497-3.01 2.776z" fill="#000"/></svg>