<svg width="20" height="20" viewBox="0 0 20 20" fill="none" xmlns="http://www.w3.org/2000/svg">
<circle cx="10" cy="10.0001" r="10" fill="#12141D"/>
<path d="M15.0429 6.23798C14.9682 6.16261 14.8792 6.10278 14.7812 6.06195C14.6832 6.02113 14.5781 6.00011 14.472 6.00011C14.3658 6.00011 14.2607 6.02113 14.1627 6.06195C14.0647 6.10278 13.9758 6.16261 13.901 6.23798L7.90986 12.2372L5.39278 9.71204C5.31516 9.63706 5.22353 9.5781 5.12312 9.53853C5.02271 9.49896 4.9155 9.47956 4.80759 9.48142C4.69969 9.48329 4.59321 9.50639 4.49423 9.54941C4.39525 9.59243 4.30572 9.65452 4.23074 9.73214C4.15576 9.80976 4.0968 9.90139 4.05723 10.0018C4.01766 10.1022 3.99826 10.2094 4.00012 10.3173C4.00199 10.4252 4.02509 10.5317 4.06811 10.6307C4.11113 10.7297 4.17322 10.8192 4.25084 10.8942L7.33889 13.9822C7.41365 14.0576 7.50259 14.1174 7.60059 14.1583C7.69859 14.1991 7.8037 14.2201 7.90986 14.2201C8.01602 14.2201 8.12113 14.1991 8.21913 14.1583C8.31712 14.1174 8.40607 14.0576 8.48083 13.9822L15.0429 7.42013C15.1246 7.34482 15.1897 7.25342 15.2343 7.1517C15.2788 7.04997 15.3018 6.94011 15.3018 6.82905C15.3018 6.718 15.2788 6.60814 15.2343 6.50641C15.1897 6.40468 15.1246 6.31329 15.0429 6.23798Z" fill="#D1EDF5"/>
</svg>
