<svg width="400" height="173" fill="none" xmlns="http://www.w3.org/2000/svg"><path d="M207.423 173v-2.836h2.841V173zm0-18.906v-2.836h2.841v2.836zm0-18.908v-2.836h2.841v2.836zm0-18.908v-2.836h2.841v2.836zm0-18.906v-2.836h2.84v2.836zm0-18.908v-2.836h2.841v2.836zm0-18.907V56.72h2.841v2.836zm0-18.907v-2.837h2.84v2.836zm0-18.908v-2.836h2.84v2.836zm0-18.906V0h2.841v2.836zM226.36 173v-2.836h2.841V173zm0-18.906v-2.836h2.841v2.836zm0-18.908v-2.836h2.841v2.836zm0-18.908v-2.836h2.841v2.836zm0-18.906v-2.836h2.84v2.836zm0-18.908v-2.836h2.841v2.836zm0-18.907V56.72h2.841v2.836zm0-18.907v-2.837h2.84v2.836zm0-18.908v-2.836h2.84v2.836zm0-18.906V0h2.841v2.836zM245.3 173v-2.836h2.841V173zm0-18.906v-2.836h2.841v2.836zm0-18.908v-2.836h2.841v2.836zm0-18.908v-2.836h2.841v2.836zm0-18.906v-2.836h2.84v2.836zm0-18.908v-2.836h2.841v2.836zm0-18.907V56.72h2.841v2.836zm0-18.907v-2.837h2.84v2.836zm0-18.908v-2.836h2.84v2.836zm0-18.906V0h2.841v2.836zM264.238 173v-2.836h2.841V173zm0-18.906v-2.836h2.841v2.836zm0-18.908v-2.836h2.841v2.836zm0-18.908v-2.836h2.841v2.836zm0-18.906v-2.836h2.84v2.836zm0-18.908v-2.836h2.841v2.836zm0-18.907V56.72h2.841v2.836zm0-18.907v-2.837h2.84v2.836zm0-18.908v-2.836h2.84v2.836zm0-18.906V0h2.841v2.836zM283.176 173v-2.836h2.841V173zm0-18.906v-2.836h2.841v2.836zm0-18.908v-2.836h2.841v2.836zm0-18.908v-2.836h2.841v2.836zm0-18.906v-2.836h2.84v2.836zm0-18.908v-2.836h2.841v2.836zm0-18.907V56.72h2.841v2.836zm0-18.907v-2.837h2.84v2.836zm0-18.908v-2.836h2.84v2.836zm0-18.906V0h2.841v2.836zM302.114 173v-2.836h2.841V173zm0-18.906v-2.836h2.841v2.836zm0-18.908v-2.836h2.841v2.836zm0-18.908v-2.836h2.841v2.836zm0-18.906v-2.836h2.84v2.836zm0-18.908v-2.836h2.841v2.836zm0-18.907V56.72h2.841v2.836zm0-18.907v-2.837h2.84v2.836zm0-18.908v-2.836h2.84v2.836zm0-18.906V0h2.841v2.836zM321.052 173v-2.836h2.841V173zm0-18.906v-2.836h2.841v2.836zm0-18.908v-2.836h2.841v2.836zm0-18.908v-2.836h2.841v2.836zm0-18.906v-2.836h2.84v2.836zm0-18.908v-2.836h2.841v2.836zm0-18.907V56.72h2.841v2.836zm0-18.907v-2.837h2.84v2.836zm0-18.908v-2.836h2.84v2.836zm0-18.906V0h2.841v2.836zM339.989 173v-2.836h2.841V173zm.002-18.906v-2.836h2.841v2.836zm0-18.908v-2.836h2.841v2.836zm0-18.908v-2.836h2.841v2.836zm-.001-18.906v-2.836h2.842v2.836zm.001-18.908v-2.836h2.841v2.836zm0-18.907V56.72h2.841v2.836zm-.001-18.907v-2.837h2.842v2.836zm0-18.908v-2.836h2.842v2.836zm.001-18.906V0h2.841v2.836zM358.929 173v-2.836h2.841V173zm0-18.906v-2.836h2.841v2.836zm0-18.908v-2.836h2.841v2.836zm0-18.908v-2.836h2.841v2.836zm0-18.906v-2.836h2.84v2.836zm.001-18.908v-2.836h2.84v2.836zm0-18.907V56.72h2.84v2.836zm-.001-18.907v-2.837h2.84v2.836zm0-18.908v-2.836h2.84v2.836zm.001-18.906V0h2.84v2.836zM377.866 173v-2.836h2.841V173zm0-18.906v-2.836h2.841v2.836zm0-18.908v-2.836h2.841v2.836zm0-18.908v-2.836h2.841v2.836zm0-18.906v-2.836h2.84v2.836zm0-18.908v-2.836h2.841v2.836zm0-18.907V56.72h2.841v2.836zm0-18.907v-2.837h2.84v2.836zm0-18.908v-2.836h2.84v2.836zm0-18.906V0h2.841v2.836zM396.805 173v-2.836h2.841V173zm.001-18.906v-2.836h2.841v2.836zm0-18.908v-2.836h2.841v2.836zm0-18.908v-2.836h2.841v2.836zm0-18.906v-2.836h2.84v2.836zm0-18.908v-2.836h2.841v2.836zm0-18.907V56.72h2.841v2.836zm0-18.907v-2.837h2.84v2.836zm0-18.908v-2.836h2.84v2.836zm0-18.906V0h2.841v2.836zM0 173v-2.836h2.841V173zm0-18.906v-2.836h2.841v2.836zm0-18.908v-2.836h2.841v2.836zm0-18.908v-2.836h2.841v2.836zm0-18.906v-2.836h2.84v2.836zm0-18.908v-2.836h2.841v2.836zm0-18.907V56.72h2.841v2.836zM0 40.65v-2.837h2.84v2.836zm0-18.908v-2.836h2.84v2.836zM0 2.836V0h2.841v2.836zM18.938 173v-2.837h2.84V173zm0-18.907v-2.836h2.84v2.836zm0-18.908v-2.836h2.84v2.836zm0-18.907v-2.837h2.84v2.837zm-.001-18.906v-2.836h2.841v2.836zm.001-18.909v-2.836h2.84v2.836zm0-18.907V56.72h2.84v2.836zm-.001-18.907v-2.836h2.841v2.836zm0-18.907v-2.836h2.841v2.836zm.001-18.907V0h2.84v2.836zM37.877 173v-2.836h2.841V173zm0-18.906v-2.836h2.841v2.836zm0-18.908v-2.836h2.841v2.836zm0-18.908v-2.836h2.841v2.836zm0-18.906v-2.836h2.84v2.836zm0-18.908v-2.836h2.841v2.836zm0-18.907V56.72h2.841v2.836zm0-18.907v-2.837h2.84v2.836zm0-18.908v-2.836h2.84v2.836zm0-18.906V0h2.841v2.836zM56.815 173v-2.836h2.841V173zm0-18.906v-2.836h2.841v2.836zm0-18.908v-2.836h2.841v2.836zm0-18.908v-2.836h2.841v2.836zm0-18.905v-2.837h2.841v2.837zm0-18.909v-2.836h2.841v2.836zm.001-18.907v-2.836h2.84v2.836zm-.001-18.907v-2.836h2.841v2.836zm0-18.907v-2.836h2.841v2.836zm0-18.907V0h2.841v2.836zM75.753 173v-2.836h2.84V173zm0-18.906v-2.836h2.84v2.836zm0-18.908v-2.836h2.84v2.836zm0-18.908v-2.836h2.84v2.836zm0-18.906v-2.836h2.84v2.836zm0-18.908v-2.836h2.841v2.836zm0-18.908V56.72h2.841v2.836zm-.001-18.906v-2.837h2.842v2.836zm.001-18.908v-2.836h2.84v2.836zm0-18.906V0h2.841v2.836zM94.691 173v-2.836h2.841V173zm0-18.906v-2.836h2.841v2.836zm0-18.908v-2.836h2.841v2.836zm0-18.908v-2.836h2.841v2.836zm0-18.906v-2.836h2.841v2.836zm0-18.908v-2.836h2.841v2.836zm.001-18.907v-2.836h2.84v2.836zm-.001-18.907v-2.836h2.841v2.836zm0-18.907v-2.836h2.841v2.836zm0-18.907V0h2.841v2.836zM113.629 173v-2.836h2.841V173zm0-18.906v-2.836h2.841v2.836zm0-18.908v-2.836h2.841v2.836zm0-18.908v-2.836h2.841v2.836zm0-18.906v-2.836h2.84v2.836zm.001-18.908v-2.836h2.84v2.836zm0-18.907V56.72h2.84v2.836zm-.001-18.907v-2.837h2.84v2.836zm0-18.908v-2.836h2.84v2.836zm.001-18.906V0h2.84v2.836zM132.566 173v-2.836h2.841V173zm.002-18.906v-2.836h2.841v2.836zm0-18.908v-2.836h2.841v2.836zm0-18.908v-2.836h2.841v2.836zm0-18.906v-2.836h2.84v2.836zm0-18.908v-2.836h2.841v2.836zm0-18.907V56.72h2.841v2.836zm0-18.907v-2.837h2.84v2.836zm0-18.908v-2.836h2.84v2.836zm0-18.906V0h2.841v2.836zM151.506 173v-2.836h2.841V173zm0-18.906v-2.836h2.841v2.836zm0-18.908v-2.836h2.841v2.836zm0-18.908v-2.836h2.841v2.836zm0-18.906v-2.836h2.84v2.836zm0-18.908v-2.836h2.841v2.836zm0-18.907V56.72h2.841v2.836zm0-18.907v-2.837h2.84v2.836zm0-18.908v-2.836h2.84v2.836zm0-18.906V0h2.841v2.836zM170.443 173v-2.836h2.841V173zm0-18.906v-2.836h2.841v2.836zm0-18.908v-2.836h2.841v2.836zm0-18.908v-2.836h2.841v2.836zm0-18.906v-2.836h2.84v2.836zm0-18.908v-2.836h2.841v2.836zm0-18.907V56.72h2.841v2.836zm0-18.907v-2.837h2.84v2.836zm0-18.908v-2.836h2.84v2.836zm0-18.906V0h2.841v2.836zM189.382 173v-2.836h2.841V173zm.001-18.906v-2.836h2.841v2.836zm0-18.908v-2.836h2.841v2.836zm0-18.908v-2.836h2.841v2.836zm0-18.906v-2.836h2.84v2.836zm0-18.908v-2.836h2.841v2.836zm0-18.907V56.72h2.841v2.836zm0-18.907v-2.837h2.84v2.836zm0-18.908v-2.836h2.84v2.836zm0-18.906V0h2.841v2.836z" opacity=".7" fill="#C5C5C5"/></svg>