<svg width="120" height="193" fill="none" xmlns="http://www.w3.org/2000/svg"><path d="M0 0h2.836v2.841H0zm18.906 0h2.836v2.841h-2.836zm18.909 0h2.836v2.841h-2.836zm18.907 0h2.836v2.841h-2.836zm18.906 0h2.836v2.841h-2.836zm18.908 0h2.836v2.841h-2.836zm18.907 0h2.836v2.841h-2.836zM0 18.938h2.836v2.841H0zm18.906 0h2.836v2.841h-2.836zm18.909 0h2.836v2.841h-2.836zm18.907 0h2.836v2.841h-2.836zm18.906 0h2.836v2.841h-2.836zm18.908 0h2.836v2.841h-2.836zm18.907 0h2.836v2.841h-2.836zM0 37.877h2.836v2.841H0zm18.906 0h2.836v2.841h-2.836zm18.909 0h2.836v2.841h-2.836zm18.907 0h2.836v2.841h-2.836zm18.906 0h2.836v2.841h-2.836zm18.908 0h2.836v2.841h-2.836zm18.907 0h2.836v2.841h-2.836zM0 56.815h2.836v2.841H0zm18.906 0h2.836v2.841h-2.836zm18.909 0h2.836v2.841h-2.836zm18.907 0h2.836v2.841h-2.836zm18.906 0h2.836v2.841h-2.836zm18.908 0h2.836v2.841h-2.836zm18.907 0h2.836v2.841h-2.836zM0 75.752h2.836v2.841H0zm18.906 0h2.836v2.841h-2.836zm18.909 0h2.836v2.841h-2.836zm18.907 0h2.836v2.841h-2.836zm18.906 0h2.836v2.841h-2.836zm18.908 0h2.836v2.841h-2.836zm18.907 0h2.836v2.841h-2.836zM0 94.691h2.836v2.841H0zm18.906 0h2.836v2.841h-2.836zm18.909 0h2.836v2.841h-2.836zm18.907 0h2.836v2.841h-2.836zm18.906 0h2.836v2.841h-2.836zm18.908 0h2.836v2.841h-2.836zm18.907 0h2.836v2.841h-2.836zM0 113.629h2.836v2.841H0zm18.906 0h2.836v2.841h-2.836zm18.909 0h2.836v2.841h-2.836zm18.907 0h2.836v2.841h-2.836zm18.906 0h2.836v2.841h-2.836zm18.908 0h2.836v2.841h-2.836zm18.907 0h2.836v2.841h-2.836zM0 132.567h2.836v2.841H0zm18.906.001h2.836v2.841h-2.836zm18.909 0h2.836v2.841h-2.836zm18.907 0h2.836v2.841h-2.836zm18.906 0h2.836v2.841h-2.836zm18.908 0h2.836v2.841h-2.836zm18.907 0h2.836v2.841h-2.836zM0 151.506h2.836v2.841H0zm18.906 0h2.836v2.841h-2.836zm18.909 0h2.836v2.841h-2.836zm18.907 0h2.836v2.841h-2.836zm18.906 0h2.836v2.841h-2.836zm18.908 0h2.836v2.841h-2.836zm18.907 0h2.836v2.841h-2.836zM0 170.443h2.836v2.841H0zm18.906 0h2.836v2.841h-2.836zm18.909 0h2.836v2.841h-2.836zm18.907 0h2.836v2.841h-2.836zm18.906 0h2.836v2.841h-2.836zm18.908 0h2.836v2.841h-2.836zm18.907 0h2.836v2.841h-2.836zM0 189.382h2.836v2.841H0zm18.906.001h2.836v2.841h-2.836zm18.909 0h2.836v2.841h-2.836zm18.907 0h2.836v2.841h-2.836zm18.906 0h2.836v2.841h-2.836zm18.908 0h2.836v2.841h-2.836zm18.907 0h2.836v2.841h-2.836z" opacity=".5" fill="#000"/></svg>