<svg width="53" height="53" fill="none" xmlns="http://www.w3.org/2000/svg"><path d="M46.927 36.128c-1.943 0-2.804-.75-4.019-1.81-1.347-1.15-3.025-2.607-6.183-2.607-3.18 0-4.836 1.458-6.184 2.606-1.214 1.06-2.097 1.811-4.04 1.811-1.922 0-2.805-.75-4.02-1.81-1.347-1.15-3.025-2.607-6.183-2.607-3.18 0-4.858 1.458-6.206 2.606-1.214 1.06-2.075 1.811-4.019 1.811-.905 0-1.656.75-1.656 1.656 0 .928.75 1.657 1.656 1.657 3.18 0 4.836-1.436 6.184-2.606 1.214-1.06 2.098-1.811 4.04-1.811 1.944 0 2.805.75 4.02 1.81 1.347 1.171 3.025 2.607 6.183 2.607 3.18 0 4.859-1.436 6.206-2.606 1.214-1.06 2.076-1.811 4.019-1.811 1.921 0 2.804.75 4.02 1.81 1.346 1.171 3.025 2.607 6.182 2.607.906 0 1.657-.73 1.657-1.657 0-.905-.751-1.656-1.657-1.656zm0-9.098c-1.943 0-2.804-.773-4.019-1.81-1.347-1.17-3.025-2.606-6.183-2.606-3.18 0-4.836 1.435-6.184 2.606-1.214 1.038-2.097 1.81-4.04 1.81-1.922 0-2.805-.773-4.02-1.81-1.347-1.17-3.025-2.606-6.183-2.606-3.18 0-4.858 1.435-6.206 2.606-1.214 1.038-2.075 1.81-4.019 1.81-.905 0-1.656.73-1.656 1.657 0 .905.75 1.656 1.656 1.656 3.18 0 4.836-1.458 6.184-2.628 1.214-1.038 2.098-1.789 4.04-1.789 1.944 0 2.805.751 4.02 1.789 1.347 1.17 3.025 2.628 6.183 2.628 3.18 0 4.859-1.458 6.206-2.628 1.214-1.038 2.076-1.789 4.019-1.789 1.921 0 2.804.751 4.02 1.789 1.346 1.17 3.025 2.628 6.182 2.628.906 0 1.657-.75 1.657-1.656 0-.928-.751-1.657-1.657-1.657zM6.073 21.289c3.18 0 4.836-1.458 6.184-2.606 1.214-1.06 2.098-1.81 4.04-1.81 1.944 0 2.805.75 4.02 1.81 1.347 1.148 3.025 2.606 6.183 2.606 3.18 0 4.859-1.458 6.206-2.606 1.214-1.06 2.076-1.81 4.019-1.81 1.921 0 2.804.75 4.02 1.81 1.346 1.148 3.025 2.606 6.182 2.606.906 0 1.657-.751 1.657-1.657 0-.927-.751-1.656-1.657-1.656-1.943 0-2.804-.75-4.019-1.81-1.347-1.171-3.025-2.606-6.183-2.606-3.18 0-4.836 1.435-6.184 2.605-1.214 1.06-2.097 1.811-4.04 1.811-1.922 0-2.805-.75-4.02-1.81-1.347-1.171-3.025-2.606-6.183-2.606-3.18 0-4.858 1.435-6.206 2.605-1.214 1.06-2.075 1.811-4.019 1.811-.905 0-1.656.729-1.656 1.657 0 .905.75 1.656 1.656 1.656z" fill="#141416"/></svg>