<svg width="24" height="11" fill="none" xmlns="http://www.w3.org/2000/svg"><g clip-path="url(#clip0_4_2136)" stroke="#CBD5E0" stroke-width="2" stroke-linecap="round" stroke-linejoin="round"><path d="M11 5.615c0 .246.448.446 1 .446s1-.2 1-.446-.448-.446-1-.446-1 .2-1 .446zm-7 0c0 .246.448.446 1 .446s1-.2 1-.446-.448-.446-1-.446-1 .2-1 .446zm14 0c0 .246.448.446 1 .446s1-.2 1-.446-.448-.446-1-.446-1 .2-1 .446z"/></g><defs><clipPath id="clip0_4_2136"><path fill="#fff" transform="rotate(90 11.867 12.133)" d="M0 0h10.699v24H0z"/></clipPath></defs></svg>