<svg width="53" height="53" viewBox="0 0 53 53" fill="none" xmlns="http://www.w3.org/2000/svg">
<path d="M46.9274 36.1281C44.9841 36.1281 44.1228 35.3773 42.9082 34.3173C41.5611 33.1689 39.8828 31.7114 36.7249 31.7114C33.5449 31.7114 31.8886 33.1689 30.5415 34.3173C29.327 35.3773 28.4437 36.1281 26.5003 36.1281C24.5791 36.1281 23.6957 35.3773 22.4811 34.3173C21.1341 33.1689 19.4558 31.7114 16.2978 31.7114C13.1178 31.7114 11.4395 33.1689 10.0924 34.3173C8.87784 35.3773 8.01658 36.1281 6.07324 36.1281C5.16783 36.1281 4.41699 36.8789 4.41699 37.7843C4.41699 38.7118 5.16783 39.4406 6.07324 39.4406C9.25324 39.4406 10.9095 38.0052 12.2565 36.8348C13.4711 35.7748 14.3545 35.0239 16.2978 35.0239C18.2412 35.0239 19.1024 35.7748 20.317 36.8348C21.6641 38.0052 23.3424 39.4406 26.5003 39.4406C29.6803 39.4406 31.3587 38.0052 32.7057 36.8348C33.9203 35.7748 34.7816 35.0239 36.7249 35.0239C38.6462 35.0239 39.5295 35.7748 40.7441 36.8348C42.0912 38.0052 43.7695 39.4406 46.9274 39.4406C47.8328 39.4406 48.5837 38.7118 48.5837 37.7843C48.5837 36.8789 47.8328 36.1281 46.9274 36.1281Z" fill="#141416"/>
<path d="M46.9274 27.0304C44.9841 27.0304 44.1228 26.2575 42.9082 25.2196C41.5611 24.0492 39.8828 22.6138 36.7249 22.6138C33.5449 22.6138 31.8886 24.0492 30.5415 25.2196C29.327 26.2575 28.4437 27.0304 26.5003 27.0304C24.5791 27.0304 23.6957 26.2575 22.4811 25.2196C21.1341 24.0492 19.4558 22.6138 16.2978 22.6138C13.1178 22.6138 11.4395 24.0492 10.0924 25.2196C8.87784 26.2575 8.01658 27.0304 6.07324 27.0304C5.16783 27.0304 4.41699 27.7592 4.41699 28.6867C4.41699 29.5921 5.16783 30.3429 6.07324 30.3429C9.25324 30.3429 10.9095 28.8854 12.2565 27.715C13.4711 26.6771 14.3545 25.9263 16.2978 25.9263C18.2412 25.9263 19.1024 26.6771 20.317 27.715C21.6641 28.8854 23.3424 30.3429 26.5003 30.3429C29.6803 30.3429 31.3587 28.8854 32.7057 27.715C33.9203 26.6771 34.7816 25.9263 36.7249 25.9263C38.6462 25.9263 39.5295 26.6771 40.7441 27.715C42.0912 28.8854 43.7695 30.3429 46.9274 30.3429C47.8328 30.3429 48.5837 29.5921 48.5837 28.6867C48.5837 27.7592 47.8328 27.0304 46.9274 27.0304Z" fill="#141416"/>
<path d="M6.07324 21.2887C9.25324 21.2887 10.9095 19.8312 12.2565 18.6829C13.4711 17.6229 14.3545 16.8721 16.2978 16.8721C18.2412 16.8721 19.1024 17.6229 20.317 18.6829C21.6641 19.8312 23.3424 21.2887 26.5003 21.2887C29.6803 21.2887 31.3587 19.8312 32.7057 18.6829C33.9203 17.6229 34.7816 16.8721 36.7249 16.8721C38.6462 16.8721 39.5295 17.6229 40.7441 18.6829C42.0912 19.8312 43.7695 21.2887 46.9274 21.2887C47.8328 21.2887 48.5837 20.5379 48.5837 19.6325C48.5837 18.705 47.8328 17.9762 46.9274 17.9762C44.9841 17.9762 44.1228 17.2254 42.9082 16.1654C41.5611 14.995 39.8828 13.5596 36.7249 13.5596C33.5449 13.5596 31.8886 14.995 30.5415 16.1654C29.327 17.2254 28.4437 17.9762 26.5003 17.9762C24.5791 17.9762 23.6957 17.2254 22.4811 16.1654C21.1341 14.995 19.4558 13.5596 16.2978 13.5596C13.1178 13.5596 11.4395 14.995 10.0924 16.1654C8.87784 17.2254 8.01658 17.9762 6.07324 17.9762C5.16783 17.9762 4.41699 18.705 4.41699 19.6325C4.41699 20.5379 5.16783 21.2887 6.07324 21.2887Z" fill="#141416"/>
</svg>
