<svg width="14" height="13" fill="none" xmlns="http://www.w3.org/2000/svg"><path d="M11.87 2.404h0a3.394 3.394 0 00-1.079-.713h0a3.41 3.41 0 00-1.316-.261h-.002c-.635 0-1.254.174-1.791.501h0c-.129.079-.25.165-.365.258l-.45.365-.45-.365a3.335 3.335 0 00-.366-.258h0A3.436 3.436 0 004.26 1.43c-.46 0-.9.087-1.318.26h0a3.386 3.386 0 00-1.08.714h0c-.31.302-.556.662-.727 1.059L11.87 2.404zm0 0a3.305 3.305 0 01.995 2.358v.002c0 .42-.086.873-.268 1.35l-.001.002a6.4 6.4 0 01-.675 1.27c-.47.702-1.131 1.453-1.972 2.23a22.872 22.872 0 01-2.833 2.212h0l-.25.161-.25-.16h0l-.012-.008h-.002l-.064-.043a21.535 21.535 0 01-.832-.583 22.602 22.602 0 01-1.923-1.58h0m8.088-7.21l-8.088 7.21m0 0C2.942 8.84 2.28 8.088 1.81 7.386l1.973 2.23zM.867 4.764c0-.451.09-.888.268-1.301v2.651a3.785 3.785 0 01-.268-1.35zm.943 2.622a6.48 6.48 0 01-.675-1.272l.675 1.272z" stroke="#888" stroke-width="1.43"/></svg>