<svg width="23" height="23" fill="none" xmlns="http://www.w3.org/2000/svg"><path d="M.74 3.106c0-.732.284-1.434.79-1.951A2.668 2.668 0 013.436.347h13.245c.715 0 1.401.29 1.907.808.506.517.79 1.22.79 1.95v1.263a3.647 3.647 0 012.442 1.184 3.81 3.81 0 01.992 2.57v10.536a3.8 3.8 0 01-1.078 2.66 3.638 3.638 0 01-2.6 1.102H4.421a3.638 3.638 0 01-2.601-1.102 3.807 3.807 0 01-1.078-2.66V8.123H.74V3.357h.01a2.857 2.857 0 01-.01-.251zm17.168 0c0-.692-.55-1.254-1.227-1.254H3.438c-.325 0-.637.132-.867.367a1.269 1.269 0 000 1.774c.23.235.542.367.867.367h14.47V3.106zM16.19 13.39a.728.728 0 00-.52.22.761.761 0 000 1.065c.138.141.325.22.52.22h2.453a.727.727 0 00.52-.22.762.762 0 000-1.064.728.728 0 00-.52-.22H16.19z" fill="#fff"/></svg>