<svg width="123" height="40" viewBox="0 0 123 40" fill="none" xmlns="http://www.w3.org/2000/svg">
<path d="M107.253 19.351H121.218" stroke="#ACADB9" stroke-width="1.99471" stroke-linecap="round" stroke-linejoin="round"/>
<path d="M114.233 12.3665L121.216 19.3488L114.233 26.3312" stroke="#ACADB9" stroke-width="1.99471" stroke-linecap="round" stroke-linejoin="round"/>
<path d="M4.75159 15.345V18.9497H8.9924V20.593H4.75159V24.3567H9.5225V26H2.73721V13.7017H9.5225V15.345H4.75159ZM16.0854 21.0701L19.2307 26H16.9512L14.8485 22.6957L12.8695 26H10.7667L13.912 21.2114L10.7667 16.2638H13.0462L15.1489 19.5681L17.1279 16.2638H19.2307L16.0854 21.0701ZM22.6591 17.6951C23.0007 17.2474 23.466 16.8705 24.055 16.5642C24.644 16.2579 25.3096 16.1048 26.0517 16.1048C26.8999 16.1048 27.6715 16.3168 28.3665 16.7409C29.0733 17.1532 29.6269 17.7363 30.0275 18.4902C30.428 19.2442 30.6282 20.11 30.6282 21.0877C30.6282 22.0655 30.428 22.9431 30.0275 23.7206C29.6269 24.4863 29.0733 25.087 28.3665 25.5229C27.6715 25.947 26.8999 26.159 26.0517 26.159C25.3096 26.159 24.6499 26.0118 24.0727 25.7173C23.4954 25.411 23.0242 25.034 22.6591 24.5864V30.6295H20.6447V16.2638H22.6591V17.6951ZM28.5785 21.0877C28.5785 20.4163 28.4372 19.839 28.1544 19.3561C27.8835 18.8613 27.5183 18.4902 27.0589 18.2429C26.6113 17.9837 26.1283 17.8541 25.61 17.8541C25.1034 17.8541 24.6204 17.9837 24.161 18.2429C23.7134 18.502 23.3482 18.879 23.0655 19.3737C22.7945 19.8685 22.6591 20.4516 22.6591 21.1231C22.6591 21.7945 22.7945 22.3835 23.0655 22.8901C23.3482 23.3848 23.7134 23.7618 24.161 24.021C24.6204 24.2801 25.1034 24.4097 25.61 24.4097C26.1283 24.4097 26.6113 24.2801 27.0589 24.021C27.5183 23.75 27.8835 23.3613 28.1544 22.8547C28.4372 22.3482 28.5785 21.7592 28.5785 21.0877ZM34.5463 12.9242V26H32.5319V12.9242H34.5463ZM41.3258 26.159C40.407 26.159 39.5765 25.9529 38.8343 25.5406C38.0922 25.1165 37.5091 24.5275 37.085 23.7736C36.6609 23.0079 36.4489 22.1244 36.4489 21.1231C36.4489 20.1335 36.6668 19.2559 37.1027 18.4902C37.5385 17.7245 38.1334 17.1355 38.8873 16.7232C39.6413 16.3109 40.4835 16.1048 41.4141 16.1048C42.3448 16.1048 43.187 16.3109 43.941 16.7232C44.6949 17.1355 45.2898 17.7245 45.7256 18.4902C46.1615 19.2559 46.3794 20.1335 46.3794 21.1231C46.3794 22.1126 46.1556 22.9902 45.708 23.7559C45.2603 24.5216 44.6478 25.1165 43.8703 25.5406C43.1046 25.9529 42.2564 26.159 41.3258 26.159ZM41.3258 24.4097C41.8441 24.4097 42.3271 24.286 42.7747 24.0386C43.2342 23.7912 43.6052 23.4202 43.8879 22.9254C44.1707 22.4307 44.312 21.8299 44.312 21.1231C44.312 20.4163 44.1766 19.8214 43.9056 19.3384C43.6347 18.8436 43.2754 18.4726 42.8277 18.2252C42.3801 17.9778 41.8971 17.8541 41.3788 17.8541C40.8605 17.8541 40.3775 17.9778 39.9299 18.2252C39.494 18.4726 39.1465 18.8436 38.8873 19.3384C38.6282 19.8214 38.4986 20.4163 38.4986 21.1231C38.4986 22.1715 38.7636 22.9843 39.2937 23.5615C39.8356 24.127 40.513 24.4097 41.3258 24.4097ZM50.2968 17.6774C50.5913 17.1827 50.98 16.7998 51.463 16.5289C51.9578 16.2461 52.5409 16.1048 53.2123 16.1048V18.1898H52.6999C51.9106 18.1898 51.3099 18.3901 50.8976 18.7906C50.497 19.1911 50.2968 19.8862 50.2968 20.8757V26H48.2824V16.2638H50.2968V17.6774ZM63.899 20.8934C63.899 21.2585 63.8754 21.5884 63.8283 21.8829H56.3892C56.4481 22.6604 56.7367 23.2847 57.2551 23.7559C57.7734 24.2271 58.4095 24.4627 59.1634 24.4627C60.2472 24.4627 61.0129 24.0092 61.4605 23.1021H63.6339C63.3394 23.9974 62.8034 24.7336 62.026 25.3109C61.2603 25.8763 60.3061 26.159 59.1634 26.159C58.2328 26.159 57.3964 25.9529 56.6543 25.5406C55.9239 25.1165 55.3467 24.5275 54.9226 23.7736C54.5103 23.0079 54.3042 22.1244 54.3042 21.1231C54.3042 20.1218 54.5044 19.2442 54.9049 18.4902C55.3172 17.7245 55.8886 17.1355 56.6189 16.7232C57.3611 16.3109 58.2092 16.1048 59.1634 16.1048C60.0823 16.1048 60.901 16.305 61.6195 16.7056C62.3381 17.1061 62.8977 17.6715 63.2982 18.4019C63.6987 19.1205 63.899 19.951 63.899 20.8934ZM61.7962 20.2572C61.7845 19.5151 61.5194 18.9202 61.0011 18.4726C60.4828 18.0249 59.8408 17.8011 59.0751 17.8011C58.38 17.8011 57.7852 18.0249 57.2904 18.4726C56.7956 18.9084 56.5011 19.5033 56.4069 20.2572H61.7962ZM77.6984 23.4909H72.5565L71.673 26H69.5702L73.9701 13.7017H76.3025L80.7024 26H78.5819L77.6984 23.4909ZM77.133 21.8475L75.1363 16.1401L73.1219 21.8475H77.133ZM84.5414 12.9242V26H82.5271V12.9242H84.5414ZM89.1122 12.9242V26H87.0978V12.9242H89.1122Z" fill="#ACADB9"/>
</svg>
