<svg width="27" height="26" viewBox="0 0 27 26" fill="none" xmlns="http://www.w3.org/2000/svg">
<path d="M12.6548 9.96301V11.9779C11.8992 11.789 11.3955 11.3588 11.3955 10.9705C11.3955 10.5717 11.8992 10.1414 12.6548 9.96301Z" fill="black"/>
<path d="M15.4878 14.7484C15.4878 15.1367 14.9841 15.567 14.2285 15.7559V13.741C14.9841 13.9194 15.4878 14.3496 15.4878 14.7484Z" fill="black"/>
<path d="M20.6726 5.61834C18.7416 3.68737 16.1705 2.62744 13.442 2.62744C10.7134 2.62744 8.14232 3.68737 6.21135 5.61834C4.26989 7.5493 3.20996 10.1204 3.20996 12.8595C3.20996 14.2027 3.47232 15.525 3.98655 16.7739C4.50077 18.0227 5.25637 19.1351 6.21135 20.0901C7.15585 21.0451 8.27875 21.7902 9.52758 22.3044C10.7764 22.8291 12.0882 23.0915 13.442 23.0915C14.7958 23.0915 16.1076 22.8291 17.3564 22.3044C18.6052 21.7902 19.7281 21.0451 20.6726 20.0901C21.6276 19.1351 22.3832 18.0227 22.8974 16.7739C23.4116 15.525 23.674 14.2027 23.674 12.8595C23.674 10.1204 22.6141 7.5493 20.6726 5.61834ZM14.2291 17.3616V17.5819C14.2291 18.0122 13.8723 18.369 13.442 18.369C13.0117 18.369 12.6549 18.0122 12.6549 17.5819V17.3511C11.7314 17.2041 10.9128 16.8054 10.3881 16.2072C10.1572 15.9343 10.1363 15.5355 10.3461 15.2417C10.556 14.9373 10.9338 14.8324 11.2696 14.9583L12.6549 15.4831V13.5731C11.0178 13.3212 9.82142 12.2613 9.82142 10.9705C9.82142 9.66917 11.0178 8.61973 12.6549 8.35737V8.13699C12.6549 7.69623 13.0117 7.34991 13.442 7.34991C13.8723 7.34991 14.2291 7.69623 14.2291 8.13699V8.35737C15.1526 8.51479 15.9711 8.91358 16.4958 9.50127C16.7267 9.77412 16.7477 10.1729 16.5378 10.4772C16.3909 10.6871 16.1495 10.8131 15.8977 10.8131C15.8032 10.8131 15.7088 10.7921 15.6143 10.7606L14.2291 10.2254V12.1353C15.8662 12.3872 17.0625 13.4472 17.0625 14.7485C17.0625 16.0498 15.8662 17.0992 14.2291 17.3616Z" fill="black"/>
</svg>
