<svg width="65" height="65" fill="none" xmlns="http://www.w3.org/2000/svg"><path d="M57.551 44.308c-2.383 0-3.44-.92-4.929-2.22-1.652-1.409-3.71-3.196-7.583-3.196-3.9 0-5.931 1.787-7.583 3.195-1.49 1.3-2.573 2.221-4.957 2.221-2.356 0-3.44-.92-4.929-2.22-1.652-1.409-3.71-3.196-7.583-3.196-3.9 0-5.958 1.787-7.61 3.195-1.49 1.3-2.546 2.221-4.93 2.221-1.11 0-2.031.921-2.031 2.032 0 1.137.92 2.03 2.031 2.03 3.9 0 5.932-1.76 7.584-3.195 1.49-1.3 2.572-2.22 4.956-2.22 2.383 0 3.44.92 4.929 2.22 1.652 1.435 3.71 3.196 7.583 3.196 3.9 0 5.959-1.76 7.61-3.196 1.49-1.3 2.547-2.22 4.93-2.22 2.356 0 3.44.92 4.93 2.22 1.651 1.435 3.71 3.196 7.582 3.196a2.03 2.03 0 002.032-2.032c0-1.11-.921-2.03-2.032-2.03zm0-11.158c-2.383 0-3.44-.948-4.929-2.22-1.652-1.436-3.71-3.197-7.583-3.197-3.9 0-5.931 1.76-7.583 3.196-1.49 1.273-2.573 2.221-4.957 2.221-2.356 0-3.44-.948-4.929-2.22-1.652-1.436-3.71-3.197-7.583-3.197-3.9 0-5.958 1.76-7.61 3.196-1.49 1.273-2.546 2.221-4.93 2.221-1.11 0-2.031.894-2.031 2.031 0 1.11.92 2.032 2.031 2.032 3.9 0 5.932-1.788 7.584-3.223 1.49-1.273 2.572-2.194 4.956-2.194 2.383 0 3.44.92 4.929 2.194 1.652 1.435 3.71 3.223 7.583 3.223 3.9 0 5.959-1.788 7.61-3.223 1.49-1.273 2.547-2.194 4.93-2.194 2.356 0 3.44.92 4.93 2.194 1.651 1.435 3.71 3.223 7.582 3.223 1.11 0 2.032-.921 2.032-2.032 0-1.137-.921-2.03-2.032-2.03zM7.447 26.11c3.9 0 5.932-1.788 7.584-3.197 1.49-1.3 2.572-2.22 4.956-2.22 2.383 0 3.44.92 4.929 2.22 1.652 1.409 3.71 3.196 7.583 3.196 3.9 0 5.959-1.787 7.61-3.196 1.49-1.3 2.547-2.22 4.93-2.22 2.356 0 3.44.92 4.93 2.22 1.651 1.409 3.71 3.196 7.582 3.196 1.11 0 2.032-.92 2.032-2.031a2.028 2.028 0 00-2.032-2.031c-2.383 0-3.44-.921-4.929-2.221-1.652-1.436-3.71-3.196-7.583-3.196-3.9 0-5.931 1.76-7.583 3.196-1.49 1.3-2.573 2.22-4.957 2.22-2.356 0-3.44-.92-4.929-2.22-1.652-1.436-3.71-3.196-7.583-3.196-3.9 0-5.958 1.76-7.61 3.196-1.49 1.3-2.546 2.22-4.93 2.22-1.11 0-2.031.894-2.031 2.032 0 1.11.92 2.031 2.031 2.031z" fill="#fff"/></svg>