<svg width="27" height="26" fill="none" xmlns="http://www.w3.org/2000/svg"><path d="M12.655 9.963v2.015c-.756-.189-1.26-.62-1.26-1.008 0-.398.504-.829 1.26-1.007zm2.833 4.785c0 .389-.504.819-1.26 1.008V13.74c.756.178 1.26.609 1.26 1.007z" fill="#000"/><path d="M20.673 5.618a10.16 10.16 0 00-7.231-2.99c-2.729 0-5.3 1.06-7.23 2.99A10.133 10.133 0 003.21 12.86c0 1.343.262 2.665.777 3.914A10.134 10.134 0 006.21 20.09a9.996 9.996 0 003.317 2.214c1.248.525 2.56.788 3.914.788s2.666-.263 3.914-.788a9.997 9.997 0 003.317-2.214 10.134 10.134 0 002.224-3.316 10.24 10.24 0 00.777-3.915c0-2.739-1.06-5.31-3.001-7.24zm-6.444 11.744v.22c0 .43-.357.787-.787.787a.793.793 0 01-.787-.787v-.23c-.924-.148-1.742-.547-2.267-1.145a.788.788 0 01-.042-.965.778.778 0 01.924-.284l1.385.525v-1.91c-1.637-.252-2.834-1.312-2.834-2.603 0-1.3 1.197-2.35 2.834-2.613v-.22a.786.786 0 111.574 0v.22c.924.158 1.742.557 2.267 1.144.23.273.252.672.042.976a.786.786 0 01-.64.336.9.9 0 01-.284-.052l-1.385-.536v1.91c1.637.252 2.834 1.312 2.834 2.614 0 1.3-1.197 2.35-2.834 2.613z" fill="#000"/></svg>