<svg width="26" height="26" fill="none" xmlns="http://www.w3.org/2000/svg"><path d="M17.993 2.562H7.205A2.94 2.94 0 004.267 5.5v15.1a2.95 2.95 0 002.938 2.95h10.788a2.943 2.943 0 002.939-2.95V5.5a2.934 2.934 0 00-2.939-2.938zM8.286 17.705h8.626a.786.786 0 110 1.574H8.286a.793.793 0 01-.787-.787c0-.43.357-.787.787-.787zm-.787-4.607c0-.43.357-.787.787-.787h8.626c.441 0 .787.357.787.787a.78.78 0 01-.787.787H8.286a.786.786 0 01-.787-.787zm9.413-4.607H8.286a.786.786 0 110-1.574h8.626c.441 0 .787.356.787.787a.78.78 0 01-.787.787z" fill="#000"/></svg>