<svg width="26" height="26" fill="none" xmlns="http://www.w3.org/2000/svg"><path d="M19.535 2.604H6.585a4.026 4.026 0 00-4.02 4.019v12.95a4.026 4.026 0 004.02 4.02h12.95c1.91 0 3.505-1.344 3.914-3.128a.785.785 0 00.105-.378V6.623a4.026 4.026 0 00-4.02-4.02zm.787 11.575a.786.786 0 11-1.574 0v-2.162a.786.786 0 111.574 0v2.162zm-14.524 0v-2.162a.786.786 0 111.574 0v2.162a.786.786 0 11-1.574 0zm11.281-4.313v6.464a.78.78 0 01-.787.787.786.786 0 01-.787-.787V9.866c0-.441.357-.787.787-.787a.78.78 0 01.787.787zm-3.232-2.162v10.788c0 .43-.357.787-.787.787a.793.793 0 01-.787-.787V7.704c0-.43.357-.787.787-.787.43 0 .787.357.787.787zm-3.232 2.162v6.464c0 .44-.357.787-.787.787a.78.78 0 01-.788-.787V9.866a.78.78 0 01.788-.787c.43 0 .787.346.787.787z" fill="#000"/></svg>